<?xml version="1.0" standalone="no"?>
<!DOCTYPE svg PUBLIC "-//W3C//DTD SVG 20010904//EN"
 "http://www.w3.org/TR/2001/REC-SVG-20010904/DTD/svg10.dtd">
<svg version="1.0" xmlns="http://www.w3.org/2000/svg"
 width="512.000000pt" height="512.000000pt" viewBox="0 0 512.000000 512.000000"
 preserveAspectRatio="xMidYMid meet">
<metadata>
Created by potrace 1.14, written by Peter Selinger 2001-2017
</metadata>
<g transform="translate(0.000000,512.000000) scale(0.100000,-0.100000)"
fill="#000000" stroke="none">
<path d="M2510 5113 c-15 -6 -125 -68 -320 -181 -52 -30 -115 -66 -140 -79
-25 -14 -71 -41 -103 -59 -32 -19 -61 -34 -64 -34 -4 0 -14 -6 -22 -14 -9 -7
-41 -27 -71 -43 -47 -25 -160 -90 -310 -176 -19 -11 -73 -42 -120 -68 -47 -26
-96 -58 -109 -70 -52 -48 -51 -40 -51 -741 l0 -653 -237 -135 c-130 -74 -257
-147 -282 -161 -99 -55 -317 -180 -331 -188 -8 -6 -69 -40 -135 -77 -66 -37
-134 -78 -151 -91 -66 -49 -63 -14 -64 -806 0 -776 -1 -760 54 -808 24 -21
173 -109 184 -109 3 0 13 -6 21 -14 9 -7 45 -29 81 -48 36 -19 88 -49 116 -66
28 -18 54 -32 57 -32 4 0 113 -63 157 -90 8 -6 38 -22 65 -37 28 -15 58 -32
67 -38 10 -5 88 -50 175 -100 87 -49 198 -113 246 -141 135 -79 140 -78 407
76 118 68 233 133 255 145 22 13 158 91 303 174 145 83 265 151 267 151 2 0
26 14 54 31 l49 31 54 -30 c29 -16 193 -109 363 -207 171 -98 328 -188 350
-200 22 -13 117 -67 210 -121 227 -130 225 -130 420 -17 77 44 158 91 180 103
22 12 69 39 105 60 36 21 82 47 103 59 70 39 102 58 352 201 138 79 272 156
300 171 27 15 60 38 74 51 52 50 51 34 51 805 l-1 718 -22 40 c-22 39 -69 71
-281 189 -23 13 -184 105 -358 205 -315 180 -370 211 -480 273 l-58 33 0 654
c0 633 -1 656 -20 695 -11 23 -34 51 -52 63 -18 11 -302 175 -631 363 -504
287 -606 342 -645 345 -26 3 -54 2 -62 -2z m493 -590 c231 -132 419 -244 419
-248 0 -7 -245 -152 -507 -299 -22 -13 -83 -48 -135 -78 -158 -91 -208 -118
-221 -118 -7 0 -63 29 -126 65 -62 36 -132 76 -156 89 -23 13 -98 57 -167 96
-69 40 -150 86 -180 103 -30 17 -88 50 -128 74 -41 24 -77 43 -82 43 -4 0 -13
6 -19 14 -9 11 10 26 106 82 65 37 136 77 158 89 44 24 141 80 165 95 8 5 35
20 60 34 25 13 115 65 200 115 92 54 163 89 175 87 11 -2 208 -111 438 -243z
m-1298 -630 c39 -22 90 -52 115 -65 88 -50 435 -248 450 -258 8 -5 41 -24 73
-41 l57 -32 0 -498 c0 -275 -3 -499 -6 -499 -3 0 -152 84 -332 187 -393 224
-411 234 -484 275 l-58 33 0 502 0 502 58 -33 c31 -18 89 -50 127 -73z m1895
-395 l0 -503 -307 -175 c-168 -96 -327 -187 -352 -201 -163 -93 -210 -119
-215 -119 -3 0 -6 224 -6 498 l0 499 128 72 c187 106 208 118 309 177 51 30
95 54 98 54 4 0 19 8 33 19 15 10 50 31 77 46 28 15 91 51 140 80 50 29 91 53
93 54 1 1 2 -225 2 -501z m-2130 -841 c36 -20 72 -42 80 -47 8 -5 65 -37 125
-71 160 -90 154 -87 354 -203 102 -58 188 -106 193 -106 30 0 -20 -34 -224
-150 -428 -244 -503 -287 -566 -324 -35 -20 -68 -36 -72 -36 -4 0 -64 32 -132
71 -67 39 -143 83 -168 97 -25 14 -151 86 -280 160 -129 74 -249 143 -267 152
l-32 17 132 75 c73 41 192 109 265 151 73 43 135 77 138 77 3 0 18 8 32 19 15
10 50 31 77 46 28 15 91 50 140 79 102 59 92 60 205 -7z m2325 42 c9 -6 94
-55 265 -151 128 -72 437 -249 450 -258 8 -6 39 -22 68 -37 28 -15 52 -30 52
-33 0 -5 -213 -132 -295 -176 -29 -15 -287 -162 -305 -173 -40 -26 -256 -146
-266 -149 -6 -2 -67 29 -135 69 -68 39 -149 85 -179 102 -30 17 -88 50 -128
74 -41 24 -75 43 -76 43 -2 0 -70 39 -152 87 -82 47 -163 94 -181 103 l-32 17
137 78 c75 43 171 97 212 120 41 24 176 101 300 172 209 121 238 133 265 112z
m-3240 -891 c66 -38 129 -74 140 -80 91 -51 263 -150 275 -157 8 -6 63 -37
123 -71 l107 -61 0 -499 c0 -275 -2 -500 -4 -500 -2 0 -199 112 -437 248
l-434 248 -3 503 -2 503 57 -33 c32 -18 112 -63 178 -101z m1841 -864 c-3 -8
-160 -102 -301 -180 -11 -6 -143 -81 -294 -167 -150 -87 -275 -157 -277 -157
-2 0 -4 225 -4 499 l0 500 113 64 c61 35 219 125 351 200 131 76 240 137 241
137 1 0 40 22 86 50 l84 50 3 -493 c1 -270 0 -497 -2 -503z m694 786 c195
-112 371 -212 390 -223 19 -10 54 -30 78 -44 l42 -25 0 -499 c0 -274 -2 -499
-4 -499 -2 0 -199 112 -437 248 l-434 248 -3 503 c-1 276 1 500 5 498 5 -2
168 -96 363 -207z m1706 -787 c-4 -10 -24 -23 -86 -55 -14 -7 -27 -15 -30 -18
-3 -3 -21 -13 -40 -24 -44 -23 -430 -243 -450 -255 -21 -14 -253 -145 -262
-149 -5 -2 -8 221 -8 496 l0 501 408 233 c224 128 421 240 437 249 l30 16 3
-491 c1 -270 0 -496 -2 -503z"/>
</g>
</svg>
